<svg width="158" height="42" viewBox="0 0 158 42" fill="none" xmlns="http://www.w3.org/2000/svg">
<path d="M17.5102 17.4938V18.1288C17.5102 22.1031 14.3877 24.8141 9.74305 24.8141H0V0.445312H9.21559C13.8616 0.445312 16.9827 2.97192 16.9827 6.79734V7.42831C16.9827 9.5452 15.9428 11.292 14.2333 12.3682C16.3145 13.4089 17.5102 15.1911 17.5102 17.4938ZM4.35499 4.38272V10.549H9.21559C11.3336 10.549 12.6318 9.47145 12.6318 7.76292V7.13195C12.6318 5.38517 11.402 4.38272 9.21559 4.38272H4.35499ZM13.162 17.3449C13.162 15.5995 11.7504 14.4851 9.5941 14.4851H4.34816V20.8371H9.58454C11.8146 20.8371 13.1524 19.7595 13.1524 17.9772L13.162 17.3449Z" fill="#A7A7A7"/>
<path d="M21.3364 0.445312H36.7887V4.4196H25.6778V10.6596H36.1204V14.597H25.6778V20.8371H36.7887V24.8114H21.3364V0.445312Z" fill="#A7A7A7"/>
<path d="M55.5175 4.4196L44.628 20.8371H55.5175V24.8114H39.7236V20.8371L50.6487 4.4196H39.9464V0.445312H55.5243L55.5175 4.4196Z" fill="#A7A7A7"/>
<path d="M76.9225 0.445312V24.8114H72.3502L63.6552 8.54275V24.8114H59.3809V0.445312H63.9149L72.6481 16.8259V0.445312H76.9225Z" fill="#A7A7A7"/>
<path d="M81.5288 0.445312H96.9879V4.4196H85.8756V10.6596H96.3183V14.597H85.8756V20.8371H96.9879V24.8114H81.5288V0.445312Z" fill="#A7A7A7"/>
<path d="M118.244 17.4938V18.1288C118.244 22.1031 115.121 24.8141 110.476 24.8141H100.74V0.445312H109.956C114.602 0.445312 117.723 2.97192 117.723 6.79734V7.42831C117.723 9.5452 116.683 11.292 114.974 12.3682C117.055 13.4089 118.244 15.1911 118.244 17.4938ZM105.088 4.38272V10.549H109.956C112.074 10.549 113.372 9.47145 113.372 7.76292V7.13195C113.372 5.38517 112.142 4.38272 109.956 4.38272H105.088ZM113.895 17.3449C113.895 15.5995 112.484 14.4851 110.328 14.4851H105.088V20.8371H110.328C112.558 20.8371 113.895 19.7595 113.895 17.9772V17.3449Z" fill="#A7A7A7"/>
<path d="M122.069 0.445312H137.528V4.4196H126.419V10.6596H136.862V14.597H126.419V20.8371H137.53V24.8114H122.069V0.445312Z" fill="#A7A7A7"/>
<path d="M140.538 17.6794V16.789H144.7V17.6794C144.7 20.1378 146.299 21.3942 149.309 21.3942C152.095 21.3942 153.694 20.2798 153.694 18.2735V17.8283C153.694 16.2686 152.616 15.1911 150.498 14.6338L146.818 13.6683C142.954 12.6658 140.904 10.5107 140.904 7.4651V6.87101C140.904 2.74922 144.32 0 149.451 0C154.655 0 157.665 2.59489 157.665 7.05675V7.94857H153.54V7.05675C153.54 4.82787 152.202 3.78855 149.304 3.78855C146.776 3.78855 145.215 4.86611 145.215 6.6484V7.09362C145.215 8.3938 146.33 9.47137 148.189 9.99171L151.83 10.9942C155.993 12.1455 157.999 14.2624 157.999 17.4937V18.0878C157.999 22.4704 154.618 25.2565 149.304 25.2565C143.623 25.2565 140.538 22.5824 140.538 17.6794Z" fill="#A7A7A7"/>
<path d="M47.8462 36.7682H48.5295C48.4639 35.8204 47.7 35.1689 46.6341 35.1689C45.4385 35.1689 44.665 35.8887 44.665 37.0045V38.1476C44.665 39.2634 45.4385 39.9845 46.6341 39.9845C47.7369 39.9845 48.4693 39.3713 48.5308 38.4139H47.8462C47.7793 38.9834 47.2832 39.385 46.6246 39.385C45.8552 39.385 45.3374 38.881 45.3374 38.1285V37.0359C45.3374 36.2656 45.843 35.7671 46.6246 35.7671C47.2887 35.7671 47.7861 36.1823 47.8462 36.7682Z" fill="#A7A7A7"/>
<path d="M51.9141 35.8588H52.406V35.2907H51.9646C51.6069 35.2774 51.2546 35.3815 50.9616 35.587L50.635 35.8288L50.5694 35.2907H49.9941V39.8645H50.6651V36.5663L50.702 36.5089C50.8311 36.3056 51.0105 36.139 51.2228 36.0251C51.4351 35.9112 51.6732 35.854 51.9141 35.8588Z" fill="#A7A7A7"/>
<path d="M55.2061 35.1689C54.0337 35.1689 53.2466 35.9064 53.2466 37.0045V38.1585C53.2466 39.2675 54.0241 39.9845 55.228 39.9845C56.2064 39.9845 56.9211 39.512 57.0905 38.769H56.4073C56.2624 39.1419 55.7964 39.3959 55.2348 39.3959C54.4149 39.3959 53.9162 38.9056 53.9162 38.1176V37.7597H57.1247V36.9949C57.126 35.8832 56.3717 35.1689 55.2061 35.1689ZM56.4551 37.2735L56.2296 37.2927H53.9175V37.0455C53.9175 36.2629 54.4231 35.7576 55.2061 35.7576C55.9522 35.7576 56.4537 36.2752 56.4537 37.0455L56.4551 37.2735Z" fill="#A7A7A7"/>
<path d="M62.9364 39.8643V39.2976H62.827C62.7389 39.3038 62.6504 39.2909 62.5678 39.2597C62.4851 39.2284 62.4102 39.1797 62.3482 39.1167C62.2862 39.0537 62.2387 38.978 62.2088 38.8949C62.179 38.8118 62.1675 38.7232 62.1752 38.6352V36.8229C62.1752 35.7412 61.5466 35.1689 60.3578 35.1689C59.24 35.1689 58.5404 35.707 58.4652 36.6166H59.1485C59.2209 36.0826 59.6527 35.7671 60.3264 35.7671C61.0561 35.7671 61.4933 36.1536 61.4933 36.8024V37.2804L59.8426 37.5112C58.856 37.6478 58.416 38.022 58.416 38.724C58.416 39.5256 58.9981 39.9845 60.0121 39.9845C60.586 39.9845 61.041 39.8206 61.3635 39.497L61.5521 39.3085L61.7175 39.5202C61.8924 39.7455 62.1916 39.8643 62.5824 39.8643H62.9364ZM61.4947 38.698L61.4619 38.754C61.3178 38.984 61.1157 39.172 60.8758 39.299C60.6359 39.4261 60.3667 39.4878 60.0954 39.4778C59.4942 39.4778 59.0911 39.1719 59.0911 38.7158C59.0911 38.306 59.4245 38.011 59.9834 37.9346L61.4961 37.7106L61.4947 38.698Z" fill="#A7A7A7"/>
<path d="M65.7308 39.8644H66.3457V39.2977H65.7718C65.314 39.2977 65.0394 39.0122 65.0394 38.5342V35.8588H66.5985V35.2906H65.0394V33.9426H64.3985V34.7388C64.3985 35.0953 64.2031 35.2851 63.8519 35.2851H63.1372V35.8533H64.367V38.5561C64.3684 39.4138 64.8398 39.8644 65.7308 39.8644Z" fill="#A7A7A7"/>
<path d="M68.4322 35.2905H67.7612V39.8644H68.4322V35.2905Z" fill="#A7A7A7"/>
<path d="M68.0918 34.1666C68.3801 34.1666 68.6138 33.9379 68.6138 33.6558C68.6138 33.3737 68.3801 33.145 68.0918 33.145C67.8035 33.145 67.5698 33.3737 67.5698 33.6558C67.5698 33.9379 67.8035 34.1666 68.0918 34.1666Z" fill="#A7A7A7"/>
<path d="M73.3762 35.2905L71.9004 39.5038L70.4382 35.2905H69.7495L71.3811 39.863H72.4347L74.0594 35.2905H73.3762Z" fill="#A7A7A7"/>
<path d="M76.9522 35.1689C75.7811 35.1689 74.9927 35.9064 74.9927 37.0045V38.1585C74.9927 39.2675 75.7702 39.9845 76.9727 39.9845C77.9525 39.9845 78.6685 39.512 78.8366 38.769H78.1534C78.0085 39.1419 77.5425 39.3959 76.9823 39.3959C76.1624 39.3959 75.6623 38.9056 75.6623 38.1176V37.7597H78.8708V36.9949C78.8721 35.8832 78.1192 35.1689 76.9522 35.1689ZM78.2012 37.2735L77.9744 37.2927H75.6636V37.0455C75.6636 36.2629 76.1706 35.7576 76.9522 35.7576C77.6997 35.7576 78.2012 36.2752 78.2012 37.0455V37.2735Z" fill="#A7A7A7"/>
<path d="M87.5098 39.8643V39.2976H87.4005C87.3124 39.3039 87.224 39.2909 87.1413 39.2597C87.0587 39.2285 86.9839 39.1797 86.922 39.1167C86.8602 39.0537 86.8127 38.978 86.783 38.8948C86.7533 38.8117 86.7421 38.7231 86.75 38.6352V36.8229C86.75 35.7412 86.1214 35.1689 84.9312 35.1689C83.8134 35.1689 83.1152 35.707 83.04 36.6166H83.7233C83.7957 36.0826 84.2289 35.7671 84.9012 35.7671C85.6322 35.7671 86.0682 36.1536 86.0682 36.8024V37.2804L84.4188 37.5112C83.4322 37.6478 82.9922 38.022 82.9922 38.724C82.9922 39.5256 83.5729 39.9845 84.5869 39.9845C85.1622 39.9845 85.6158 39.8206 85.9397 39.497L86.1283 39.3085L86.2922 39.5202C86.4685 39.7455 86.7678 39.8643 87.1586 39.8643H87.5098ZM86.0682 38.698L86.0353 38.754C85.8913 38.984 85.6891 39.172 85.4492 39.299C85.2093 39.4261 84.9402 39.4878 84.6689 39.4778C84.0676 39.4778 83.6631 39.1719 83.6631 38.7158C83.6631 38.306 83.9966 38.011 84.5554 37.9346L86.0682 37.7106V38.698Z" fill="#A7A7A7"/>
<path d="M90.3547 41.7039C91.5845 41.7039 92.3265 41.0661 92.3265 39.9981V35.2904H91.7608L91.6911 35.8641L91.3549 35.5773C91.0172 35.3002 90.5905 35.1547 90.1538 35.1675C89.0948 35.1675 88.4361 35.8504 88.4361 36.943V37.8253C88.4361 38.9083 89.0907 39.5802 90.1429 39.5802C90.5483 39.5933 90.9462 39.4686 91.2716 39.2265L91.6542 38.9219V40.0282C91.6542 40.6974 91.1445 41.1453 90.3861 41.1453C89.7275 41.1453 89.2301 40.8148 89.133 40.3259H88.4307C88.5181 41.1918 89.2273 41.7039 90.3547 41.7039ZM91.6228 38.3483C91.3782 38.758 90.9231 39.0011 90.3752 39.0011C89.6168 39.0011 89.1071 38.5081 89.1071 37.772V36.9935C89.1071 36.2588 89.6168 35.7644 90.3752 35.7644C90.6216 35.7581 90.8654 35.8154 91.0832 35.9307C91.301 36.046 91.4854 36.2154 91.6187 36.4226L91.6542 36.4827V38.291L91.6228 38.3483Z" fill="#A7A7A7"/>
<path d="M95.7607 35.1689C94.5883 35.1689 93.7998 35.9064 93.7998 37.0045V38.1585C93.7998 39.2675 94.5773 39.9845 95.7812 39.9845C96.7596 39.9845 97.4743 39.512 97.6437 38.769H96.9605C96.8156 39.1419 96.3497 39.3959 95.7894 39.3959C94.9695 39.3959 94.4694 38.9056 94.4694 38.1176V37.7597H97.6779V36.9949C97.6793 35.8832 96.9263 35.1689 95.7607 35.1689ZM97.0083 37.2735L96.7815 37.2927H94.4708V37.0455C94.4708 36.2629 94.9777 35.7576 95.7607 35.7576C96.5068 35.7576 97.0083 36.2752 97.0083 37.0455V37.2735Z" fill="#A7A7A7"/>
<path d="M101.113 35.7673C101.796 35.7673 102.282 36.2877 102.282 37.0047V39.8645H102.965V36.9145C102.965 35.8533 102.323 35.1691 101.325 35.1691C100.889 35.1549 100.465 35.309 100.14 35.5993L99.7946 35.9257L99.7263 35.2907H99.1523V39.8645H99.8233V36.4939L99.8574 36.4365C99.9903 36.2253 100.176 36.0524 100.396 35.935C100.617 35.8176 100.864 35.7598 101.113 35.7673Z" fill="#A7A7A7"/>
<path d="M107.586 36.7682H108.26C108.193 35.8204 107.429 35.1689 106.365 35.1689C105.168 35.1689 104.396 35.8887 104.396 37.0045V38.1476C104.396 39.2634 105.168 39.9845 106.365 39.9845C107.466 39.9845 108.198 39.3713 108.26 38.4139H107.586C107.519 38.9834 107.023 39.385 106.365 39.385C105.594 39.385 105.076 38.881 105.076 38.1285V37.0359C105.076 36.2656 105.582 35.7671 106.365 35.7671C107.023 35.7671 107.519 36.1823 107.586 36.7682Z" fill="#A7A7A7"/>
<path d="M111.65 40.5431L113.6 35.2905H112.877L111.421 39.3631L109.896 35.2905H109.166L111.079 40.1785L111.008 40.3724C110.802 40.9638 110.43 41.0143 110.098 41.0143H109.524V41.5838H110.199C110.967 41.5838 111.373 41.2916 111.65 40.5431Z" fill="#A7A7A7"/>
<path d="M36.7899 36.9446H0V37.8227H36.7899V36.9446Z" fill="#A7A7A7"/>
<path d="M158 36.9446H121.211V37.8227H158V36.9446Z" fill="#A7A7A7"/>
</svg>
