<svg width="133" height="55" viewBox="0 0 133 55" fill="none" xmlns="http://www.w3.org/2000/svg">
<path d="M5.786 0.599999H8.536L13.992 16H11.176L9.966 12.568H4.246L3.036 16H0.308L5.786 0.599999ZM9.196 10.346L7.106 3.878L4.994 10.346H9.196ZM20.1386 16.176C20.8279 16.176 21.4366 16.088 21.9646 15.912C22.4926 15.736 22.9473 15.4867 23.3286 15.164C23.7099 14.8413 24.0179 14.4453 24.2526 13.976C24.4873 13.492 24.6486 12.9567 24.7366 12.37H22.2286C22.1406 12.81 21.9353 13.1987 21.6126 13.536C21.2899 13.8733 20.7986 14.042 20.1386 14.042C19.4346 14.042 18.8699 13.7927 18.4446 13.294C18.0193 12.7953 17.8066 11.974 17.8066 10.83V9.268C17.8066 8.256 18.0193 7.508 18.4446 7.024C18.8699 6.54 19.4346 6.298 20.1386 6.298C20.7986 6.298 21.2899 6.46667 21.6126 6.804C21.9353 7.12667 22.1406 7.51533 22.2286 7.97H24.7366C24.6926 7.398 24.5533 6.88467 24.3186 6.43C24.0986 5.96067 23.7906 5.55733 23.3946 5.22C22.9986 4.88267 22.5293 4.626 21.9866 4.45C21.4439 4.25933 20.8279 4.164 20.1386 4.164C19.4199 4.164 18.7599 4.28133 18.1586 4.516C17.5719 4.75067 17.0659 5.088 16.6406 5.528C16.2153 5.968 15.8853 6.50333 15.6506 7.134C15.4306 7.76467 15.3206 8.476 15.3206 9.268V10.83C15.3206 11.6807 15.4306 12.4433 15.6506 13.118C15.8853 13.778 16.2153 14.3353 16.6406 14.79C17.0659 15.2447 17.5719 15.5893 18.1586 15.824C18.7599 16.0587 19.4199 16.176 20.1386 16.176ZM31.3534 16.176C32.0428 16.176 32.6514 16.088 33.1794 15.912C33.7074 15.736 34.1621 15.4867 34.5434 15.164C34.9248 14.8413 35.2328 14.4453 35.4674 13.976C35.7021 13.492 35.8634 12.9567 35.9514 12.37H33.4434C33.3554 12.81 33.1501 13.1987 32.8274 13.536C32.5048 13.8733 32.0134 14.042 31.3534 14.042C30.6494 14.042 30.0848 13.7927 29.6594 13.294C29.2341 12.7953 29.0214 11.974 29.0214 10.83V9.268C29.0214 8.256 29.2341 7.508 29.6594 7.024C30.0848 6.54 30.6494 6.298 31.3534 6.298C32.0134 6.298 32.5048 6.46667 32.8274 6.804C33.1501 7.12667 33.3554 7.51533 33.4434 7.97H35.9514C35.9074 7.398 35.7681 6.88467 35.5334 6.43C35.3134 5.96067 35.0054 5.55733 34.6094 5.22C34.2134 4.88267 33.7441 4.626 33.2014 4.45C32.6588 4.25933 32.0428 4.164 31.3534 4.164C30.6348 4.164 29.9748 4.28133 29.3734 4.516C28.7868 4.75067 28.2808 5.088 27.8554 5.528C27.4301 5.968 27.1001 6.50333 26.8654 7.134C26.6454 7.76467 26.5354 8.476 26.5354 9.268V10.83C26.5354 11.6807 26.6454 12.4433 26.8654 13.118C27.1001 13.778 27.4301 14.3353 27.8554 14.79C28.2808 15.2447 28.7868 15.5893 29.3734 15.824C29.9748 16.0587 30.6348 16.176 31.3534 16.176ZM42.6783 16.176C41.1676 16.176 39.9649 15.7213 39.0703 14.812C38.1903 13.888 37.7503 12.5607 37.7503 10.83V9.268C37.7503 8.476 37.8603 7.76467 38.0803 7.134C38.3149 6.50333 38.6449 5.968 39.0703 5.528C39.5103 5.088 40.0309 4.75067 40.6323 4.516C41.2483 4.28133 41.9303 4.164 42.6783 4.164C43.4263 4.164 44.1009 4.28133 44.7023 4.516C45.3183 4.75067 45.8389 5.088 46.2643 5.528C46.7043 5.968 47.0343 6.50333 47.2543 7.134C47.4889 7.76467 47.6063 8.476 47.6063 9.268V10.83C47.6063 12.5607 47.1589 13.888 46.2643 14.812C45.3843 15.7213 44.1889 16.176 42.6783 16.176ZM42.6783 14.042C43.4409 14.042 44.0349 13.7927 44.4603 13.294C44.9003 12.7953 45.1203 11.974 45.1203 10.83V9.268C45.1203 8.256 44.9003 7.508 44.4603 7.024C44.0349 6.54 43.4409 6.298 42.6783 6.298C41.9156 6.298 41.3143 6.54 40.8743 7.024C40.4489 7.508 40.2363 8.256 40.2363 9.268V10.83C40.2363 11.974 40.4489 12.7953 40.8743 13.294C41.3143 13.7927 41.9156 14.042 42.6783 14.042ZM58.5191 16H50.0931V4.34H52.5571V13.91H56.7811V4.34H59.2671V13.91H60.8071V18.75H58.5191V16ZM62.8549 4.34H65.1209V12.678L70.0269 4.34H72.4689V16H70.1809V7.64L65.2749 16H62.8549V4.34ZM78.1297 16.132C77.0591 16.132 76.2231 15.8387 75.6217 15.252C75.0204 14.6507 74.7197 13.8 74.7197 12.7C74.7197 11.556 75.0497 10.6833 75.7097 10.082C76.3844 9.466 77.4257 9.158 78.8337 9.158H81.4077V8.278C81.4077 7.55933 81.2537 7.046 80.9457 6.738C80.6524 6.41533 80.1537 6.254 79.4497 6.254C78.7457 6.254 78.2544 6.37867 77.9757 6.628C77.7117 6.87733 77.5651 7.18533 77.5357 7.552H75.2917C75.3064 7.03867 75.3944 6.57667 75.5557 6.166C75.7317 5.74067 75.9884 5.38133 76.3257 5.088C76.6631 4.79467 77.0957 4.56733 77.6237 4.406C78.1517 4.24467 78.7751 4.164 79.4937 4.164C81.0044 4.164 82.0971 4.494 82.7717 5.154C83.4611 5.814 83.8057 6.85533 83.8057 8.278V16H81.6277V14.108C81.4957 14.372 81.3344 14.6287 81.1437 14.878C80.9531 15.1127 80.7184 15.3253 80.4397 15.516C80.1757 15.7067 79.8531 15.8607 79.4717 15.978C79.0904 16.0807 78.6431 16.132 78.1297 16.132ZM78.8777 14.086C79.6697 14.086 80.2857 13.866 80.7257 13.426C81.1804 12.9713 81.4077 12.326 81.4077 11.49V10.962H79.0317C78.3131 10.962 77.8071 11.1013 77.5137 11.38C77.2351 11.644 77.0957 12.04 77.0957 12.568C77.0957 13.0373 77.2351 13.4113 77.5137 13.69C77.8071 13.954 78.2617 14.086 78.8777 14.086ZM95.0426 16H86.6166V4.34H89.0806V13.91H93.3046V4.34H95.7906V13.91H97.3306V18.75H95.0426V16ZM99.3783 4.34H101.644V12.678L106.55 4.34H108.992V16H106.704V7.64L101.798 16H99.3783V4.34ZM114.015 11.424C113.209 11.16 112.622 10.742 112.255 10.17C111.889 9.598 111.705 8.894 111.705 8.058C111.705 6.87 112.065 5.95333 112.783 5.308C113.502 4.66267 114.661 4.34 116.259 4.34H120.879V16H118.393V11.754H116.369L113.905 16H111.265L114.015 11.424ZM118.371 9.708V6.43H116.237C115.445 6.43 114.895 6.562 114.587 6.826C114.294 7.09 114.147 7.508 114.147 8.08C114.147 8.63733 114.294 9.048 114.587 9.312C114.895 9.576 115.445 9.708 116.237 9.708H118.371ZM1.914 19.6H7.326C9.27667 19.6 10.736 20.0547 11.704 20.964C12.6867 21.8587 13.178 23.076 13.178 24.616C13.178 26.1707 12.6867 27.4027 11.704 28.312C10.736 29.2067 9.27667 29.654 7.326 29.654H4.532V35H1.914V19.6ZM7.326 27.432C8.47 27.432 9.29133 27.1973 9.79 26.728C10.2887 26.244 10.538 25.54 10.538 24.616C10.538 23.692 10.2887 22.9953 9.79 22.526C9.29133 22.0567 8.47 21.822 7.326 21.822H4.532V27.432H7.326ZM19.4726 35.176C18.7539 35.176 18.0939 35.0587 17.4926 34.824C16.9059 34.5893 16.3999 34.2447 15.9746 33.79C15.5492 33.3353 15.2192 32.778 14.9846 32.118C14.7646 31.4433 14.6546 30.6807 14.6546 29.83V28.268C14.6546 26.6253 15.0726 25.364 15.9086 24.484C16.7446 23.604 17.8959 23.164 19.3626 23.164C20.8292 23.164 21.9806 23.604 22.8166 24.484C23.6526 25.3493 24.0706 26.6253 24.0706 28.312V29.874H17.1406C17.1552 31.0767 17.3679 31.92 17.7786 32.404C18.1892 32.888 18.7539 33.13 19.4726 33.13C20.0739 33.13 20.5212 32.9833 20.8146 32.69C21.1226 32.3967 21.3132 32.0593 21.3866 31.678H23.8506C23.6452 32.778 23.1832 33.636 22.4646 34.252C21.7459 34.868 20.7486 35.176 19.4726 35.176ZM19.4066 25.21C18.7026 25.21 18.1526 25.4227 17.7566 25.848C17.3752 26.2733 17.1699 26.9993 17.1406 28.026H21.7386C21.7092 26.9993 21.4966 26.2733 21.1006 25.848C20.7192 25.4227 20.1546 25.21 19.4066 25.21ZM26.5463 23.34H29.0103V28.026H30.1763L33.4763 23.34H36.1823L32.2003 28.928L36.5563 35H33.6963L30.1983 30.094H29.0103V35H26.5463V23.34ZM37.6515 32.844C38.0768 32.7853 38.4288 32.6387 38.7075 32.404C38.9861 32.1693 39.2061 31.854 39.3675 31.458C39.5435 31.0473 39.6681 30.556 39.7415 29.984C39.8148 29.412 39.8515 28.7593 39.8515 28.026V23.34H47.9475V35H45.4615V25.43H42.1835V28.026C42.1835 29.1407 42.0955 30.138 41.9195 31.018C41.7581 31.898 41.4941 32.646 41.1275 33.262C40.7755 33.878 40.3135 34.3547 39.7415 34.692C39.1695 35.0147 38.4728 35.176 37.6515 35.176V32.844ZM53.5946 35.132C52.5239 35.132 51.6879 34.8387 51.0866 34.252C50.4852 33.6507 50.1846 32.8 50.1846 31.7C50.1846 30.556 50.5146 29.6833 51.1746 29.082C51.8492 28.466 52.8906 28.158 54.2986 28.158H56.8726V27.278C56.8726 26.5593 56.7186 26.046 56.4106 25.738C56.1172 25.4153 55.6186 25.254 54.9146 25.254C54.2106 25.254 53.7192 25.3787 53.4406 25.628C53.1766 25.8773 53.0299 26.1853 53.0006 26.552H50.7566C50.7712 26.0387 50.8592 25.5767 51.0206 25.166C51.1966 24.7407 51.4532 24.3813 51.7906 24.088C52.1279 23.7947 52.5606 23.5673 53.0886 23.406C53.6166 23.2447 54.2399 23.164 54.9586 23.164C56.4692 23.164 57.5619 23.494 58.2366 24.154C58.9259 24.814 59.2706 25.8553 59.2706 27.278V35H57.0926V33.108C56.9606 33.372 56.7992 33.6287 56.6086 33.878C56.4179 34.1127 56.1832 34.3253 55.9046 34.516C55.6406 34.7067 55.3179 34.8607 54.9366 34.978C54.5552 35.0807 54.1079 35.132 53.5946 35.132ZM54.3426 33.086C55.1346 33.086 55.7506 32.866 56.1906 32.426C56.6452 31.9713 56.8726 31.326 56.8726 30.49V29.962H54.4966C53.7779 29.962 53.2719 30.1013 52.9786 30.38C52.6999 30.644 52.5606 31.04 52.5606 31.568C52.5606 32.0373 52.6999 32.4113 52.9786 32.69C53.2719 32.954 53.7266 33.086 54.3426 33.086ZM62.0814 23.34H64.5894L68.1754 30.094L71.7174 23.34H74.1154V35H71.8274V27.08L69.0774 32.36H67.1194L64.3474 27.08V35H62.0814V23.34ZM77.0345 23.34H79.3005V31.678L84.2065 23.34H86.6485V35H84.3605V26.64L79.4545 35H77.0345V23.34ZM93.9374 35.176C94.6268 35.176 95.2354 35.088 95.7634 34.912C96.2914 34.736 96.7461 34.4867 97.1274 34.164C97.5088 33.8413 97.8168 33.4453 98.0514 32.976C98.2861 32.492 98.4474 31.9567 98.5354 31.37H96.0274C95.9394 31.81 95.7341 32.1987 95.4114 32.536C95.0888 32.8733 94.5974 33.042 93.9374 33.042C93.2334 33.042 92.6688 32.7927 92.2434 32.294C91.8181 31.7953 91.6054 30.974 91.6054 29.83V28.268C91.6054 27.256 91.8181 26.508 92.2434 26.024C92.6688 25.54 93.2334 25.298 93.9374 25.298C94.5974 25.298 95.0888 25.4667 95.4114 25.804C95.7341 26.1267 95.9394 26.5153 96.0274 26.97H98.5354C98.4914 26.398 98.3521 25.8847 98.1174 25.43C97.8974 24.9607 97.5894 24.5573 97.1934 24.22C96.7974 23.8827 96.3281 23.626 95.7854 23.45C95.2428 23.2593 94.6268 23.164 93.9374 23.164C93.2188 23.164 92.5588 23.2813 91.9574 23.516C91.3708 23.7507 90.8648 24.088 90.4394 24.528C90.0141 24.968 89.6841 25.5033 89.4494 26.134C89.2294 26.7647 89.1194 27.476 89.1194 28.268V29.83C89.1194 30.6807 89.2294 31.4433 89.4494 32.118C89.6841 32.778 90.0141 33.3353 90.4394 33.79C90.8648 34.2447 91.3708 34.5893 91.9574 34.824C92.5588 35.0587 93.2188 35.176 93.9374 35.176ZM103.494 25.43H99.908V23.34H109.544V25.43H105.958V35H103.494V25.43ZM115.725 35.176C114.214 35.176 113.012 34.7213 112.117 33.812C111.237 32.888 110.797 31.5607 110.797 29.83V28.268C110.797 27.476 110.907 26.7647 111.127 26.134C111.362 25.5033 111.692 24.968 112.117 24.528C112.557 24.088 113.078 23.7507 113.679 23.516C114.295 23.2813 114.977 23.164 115.725 23.164C116.473 23.164 117.148 23.2813 117.749 23.516C118.365 23.7507 118.886 24.088 119.311 24.528C119.751 24.968 120.081 25.5033 120.301 26.134C120.536 26.7647 120.653 27.476 120.653 28.268V29.83C120.653 31.5607 120.206 32.888 119.311 33.812C118.431 34.7213 117.236 35.176 115.725 35.176ZM115.725 33.042C116.488 33.042 117.082 32.7927 117.507 32.294C117.947 31.7953 118.167 30.974 118.167 29.83V28.268C118.167 27.256 117.947 26.508 117.507 26.024C117.082 25.54 116.488 25.298 115.725 25.298C114.962 25.298 114.361 25.54 113.921 26.024C113.496 26.508 113.283 27.256 113.283 28.268V29.83C113.283 30.974 113.496 31.7953 113.921 32.294C114.361 32.7927 114.962 33.042 115.725 33.042ZM123.14 23.34H127.628C128.405 23.34 129.065 23.4207 129.608 23.582C130.165 23.7287 130.62 23.9487 130.972 24.242C131.339 24.5207 131.603 24.858 131.764 25.254C131.94 25.6353 132.028 26.0607 132.028 26.53C132.028 27.0727 131.859 27.564 131.522 28.004C131.199 28.444 130.803 28.7447 130.334 28.906C131.053 29.0967 131.588 29.434 131.94 29.918C132.292 30.402 132.468 30.996 132.468 31.7C132.468 32.712 132.116 33.5187 131.412 34.12C130.723 34.7067 129.608 35 128.068 35H123.14V23.34ZM128.068 33.02C128.772 33.02 129.271 32.8953 129.564 32.646C129.857 32.382 130.004 32.0007 130.004 31.502C130.004 31.018 129.857 30.6513 129.564 30.402C129.271 30.138 128.772 30.006 128.068 30.006H125.516V33.02H128.068ZM127.628 28.114C128.332 28.114 128.831 27.9967 129.124 27.762C129.417 27.5127 129.564 27.1607 129.564 26.706C129.564 26.2807 129.417 25.9433 129.124 25.694C128.831 25.4447 128.332 25.32 127.628 25.32H125.516V28.114H127.628ZM1.914 38.6H4.532V45.046H6.38L10.67 38.6H13.64L8.558 46.014L14.08 54H10.934L6.38 47.268H4.532V54H1.914V38.6ZM18.1239 54.132C17.0532 54.132 16.2172 53.8387 15.6159 53.252C15.0145 52.6507 14.7139 51.8 14.7139 50.7C14.7139 49.556 15.0439 48.6833 15.7039 48.082C16.3785 47.466 17.4199 47.158 18.8279 47.158H21.4019V46.278C21.4019 45.5593 21.2479 45.046 20.9399 44.738C20.6465 44.4153 20.1479 44.254 19.4439 44.254C18.7399 44.254 18.2485 44.3787 17.9699 44.628C17.7059 44.8773 17.5592 45.1853 17.5299 45.552H15.2859C15.3005 45.0387 15.3885 44.5767 15.5499 44.166C15.7259 43.7407 15.9825 43.3813 16.3199 43.088C16.6572 42.7947 17.0899 42.5673 17.6179 42.406C18.1459 42.2447 18.7692 42.164 19.4879 42.164C20.9985 42.164 22.0912 42.494 22.7659 43.154C23.4552 43.814 23.7999 44.8553 23.7999 46.278V54H21.6219V52.108C21.4899 52.372 21.3285 52.6287 21.1379 52.878C20.9472 53.1127 20.7125 53.3253 20.4339 53.516C20.1699 53.7067 19.8472 53.8607 19.4659 53.978C19.0845 54.0807 18.6372 54.132 18.1239 54.132ZM18.8719 52.086C19.6639 52.086 20.2799 51.866 20.7199 51.426C21.1745 50.9713 21.4019 50.326 21.4019 49.49V48.962H19.0259C18.3072 48.962 17.8012 49.1013 17.5079 49.38C17.2292 49.644 17.0899 50.04 17.0899 50.568C17.0899 51.0373 17.2292 51.4113 17.5079 51.69C17.8012 51.954 18.2559 52.086 18.8719 52.086ZM30.3067 54.176C31.9054 54.176 33.0787 53.8607 33.8267 53.23C34.5747 52.5993 34.9487 51.7633 34.9487 50.722C34.9487 50.062 34.7727 49.4827 34.4207 48.984C34.0687 48.4853 33.5334 48.1407 32.8147 47.95C33.2841 47.7887 33.6801 47.4953 34.0027 47.07C34.3401 46.63 34.5087 46.102 34.5087 45.486C34.5087 45.0167 34.4207 44.584 34.2447 44.188C34.0834 43.7773 33.8267 43.4253 33.4747 43.132C33.1227 42.824 32.6754 42.5893 32.1327 42.428C31.5901 42.252 30.9447 42.164 30.1967 42.164C29.5954 42.164 29.0381 42.252 28.5247 42.428C28.0114 42.5893 27.5641 42.824 27.1827 43.132C26.8014 43.44 26.4934 43.8067 26.2587 44.232C26.0387 44.6427 25.9141 45.1047 25.8847 45.618H28.4147C28.4734 45.1487 28.6421 44.7893 28.9207 44.54C29.2141 44.276 29.6394 44.144 30.1967 44.144C30.8567 44.144 31.3261 44.276 31.6047 44.54C31.8981 44.7893 32.0447 45.1487 32.0447 45.618C32.0447 46.0873 31.8907 46.454 31.5827 46.718C31.2894 46.982 30.8274 47.114 30.1967 47.114H28.7007V49.006H30.3067C31.0987 49.006 31.6561 49.1453 31.9787 49.424C32.3161 49.7027 32.4847 50.0913 32.4847 50.59C32.4847 51.0887 32.3161 51.4773 31.9787 51.756C31.6561 52.0347 31.0987 52.174 30.3067 52.174C29.5587 52.174 29.0234 52.0347 28.7007 51.756C28.3927 51.4773 28.2021 51.0887 28.1287 50.59H25.6647C25.6941 51.118 25.8041 51.602 25.9947 52.042C26.2001 52.482 26.4934 52.8633 26.8747 53.186C27.2561 53.494 27.7327 53.736 28.3047 53.912C28.8767 54.088 29.5441 54.176 30.3067 54.176ZM40.1454 54.132C39.0747 54.132 38.2387 53.8387 37.6374 53.252C37.036 52.6507 36.7354 51.8 36.7354 50.7C36.7354 49.556 37.0654 48.6833 37.7254 48.082C38.4 47.466 39.4414 47.158 40.8494 47.158H43.4234V46.278C43.4234 45.5593 43.2694 45.046 42.9614 44.738C42.668 44.4153 42.1694 44.254 41.4654 44.254C40.7614 44.254 40.27 44.3787 39.9914 44.628C39.7274 44.8773 39.5807 45.1853 39.5514 45.552H37.3074C37.322 45.0387 37.41 44.5767 37.5714 44.166C37.7474 43.7407 38.004 43.3813 38.3414 43.088C38.6787 42.7947 39.1114 42.5673 39.6394 42.406C40.1674 42.2447 40.7907 42.164 41.5094 42.164C43.02 42.164 44.1127 42.494 44.7874 43.154C45.4767 43.814 45.8214 44.8553 45.8214 46.278V54H43.6434V52.108C43.5114 52.372 43.35 52.6287 43.1594 52.878C42.9687 53.1127 42.734 53.3253 42.4554 53.516C42.1914 53.7067 41.8687 53.8607 41.4874 53.978C41.106 54.0807 40.6587 54.132 40.1454 54.132ZM40.8934 52.086C41.6854 52.086 42.3014 51.866 42.7414 51.426C43.196 50.9713 43.4234 50.326 43.4234 49.49V48.962H41.0474C40.3287 48.962 39.8227 49.1013 39.5294 49.38C39.2507 49.644 39.1114 50.04 39.1114 50.568C39.1114 51.0373 39.2507 51.4113 39.5294 51.69C39.8227 51.954 40.2774 52.086 40.8934 52.086ZM51.2502 47.972L47.7962 42.34H50.5902L52.7902 46.08L55.0562 42.34H57.7402L54.2862 47.884L58.0922 54H55.2982L52.7462 49.798L50.1502 54H47.4442L51.2502 47.972ZM63.4081 54.176C64.0975 54.176 64.7061 54.088 65.2341 53.912C65.7621 53.736 66.2168 53.4867 66.5981 53.164C66.9795 52.8413 67.2875 52.4453 67.5221 51.976C67.7568 51.492 67.9181 50.9567 68.0061 50.37H65.4981C65.4101 50.81 65.2048 51.1987 64.8821 51.536C64.5595 51.8733 64.0681 52.042 63.4081 52.042C62.7041 52.042 62.1395 51.7927 61.7141 51.294C61.2888 50.7953 61.0761 49.974 61.0761 48.83V47.268C61.0761 46.256 61.2888 45.508 61.7141 45.024C62.1395 44.54 62.7041 44.298 63.4081 44.298C64.0681 44.298 64.5595 44.4667 64.8821 44.804C65.2048 45.1267 65.4101 45.5153 65.4981 45.97H68.0061C67.9621 45.398 67.8228 44.8847 67.5881 44.43C67.3681 43.9607 67.0601 43.5573 66.6641 43.22C66.2681 42.8827 65.7988 42.626 65.2561 42.45C64.7135 42.2593 64.0975 42.164 63.4081 42.164C62.6895 42.164 62.0295 42.2813 61.4281 42.516C60.8415 42.7507 60.3355 43.088 59.9101 43.528C59.4848 43.968 59.1548 44.5033 58.9201 45.134C58.7001 45.7647 58.5901 46.476 58.5901 47.268V48.83C58.5901 49.6807 58.7001 50.4433 58.9201 51.118C59.1548 51.778 59.4848 52.3353 59.9101 52.79C60.3355 53.2447 60.8415 53.5893 61.4281 53.824C62.0295 54.0587 62.6895 54.176 63.4081 54.176ZM72.9647 44.43H69.3787V42.34H79.0147V44.43H75.4287V54H72.9647V44.43ZM83.4579 54.132C82.3872 54.132 81.5512 53.8387 80.9499 53.252C80.3485 52.6507 80.0479 51.8 80.0479 50.7C80.0479 49.556 80.3779 48.6833 81.0379 48.082C81.7125 47.466 82.7539 47.158 84.1619 47.158H86.7359V46.278C86.7359 45.5593 86.5819 45.046 86.2739 44.738C85.9805 44.4153 85.4819 44.254 84.7779 44.254C84.0739 44.254 83.5825 44.3787 83.3039 44.628C83.0399 44.8773 82.8932 45.1853 82.8639 45.552H80.6199C80.6345 45.0387 80.7225 44.5767 80.8839 44.166C81.0599 43.7407 81.3165 43.3813 81.6539 43.088C81.9912 42.7947 82.4239 42.5673 82.9519 42.406C83.4799 42.2447 84.1032 42.164 84.8219 42.164C86.3325 42.164 87.4252 42.494 88.0999 43.154C88.7892 43.814 89.1339 44.8553 89.1339 46.278V54H86.9559V52.108C86.8239 52.372 86.6625 52.6287 86.4719 52.878C86.2812 53.1127 86.0465 53.3253 85.7679 53.516C85.5039 53.7067 85.1812 53.8607 84.7999 53.978C84.4185 54.0807 83.9712 54.132 83.4579 54.132ZM84.2059 52.086C84.9979 52.086 85.6139 51.866 86.0539 51.426C86.5085 50.9713 86.7359 50.326 86.7359 49.49V48.962H84.3599C83.6412 48.962 83.1352 49.1013 82.8419 49.38C82.5632 49.644 82.4239 50.04 82.4239 50.568C82.4239 51.0373 82.5632 51.4113 82.8419 51.69C83.1352 51.954 83.5899 52.086 84.2059 52.086ZM91.9447 42.34H94.4087V47.026H99.0727V42.34H101.559V54H99.0727V49.094H94.4087V54H91.9447V42.34ZM107.22 54.132C106.149 54.132 105.313 53.8387 104.712 53.252C104.11 52.6507 103.81 51.8 103.81 50.7C103.81 49.556 104.14 48.6833 104.8 48.082C105.474 47.466 106.516 47.158 107.924 47.158H110.498V46.278C110.498 45.5593 110.344 45.046 110.036 44.738C109.742 44.4153 109.244 44.254 108.54 44.254C107.836 44.254 107.344 44.3787 107.066 44.628C106.802 44.8773 106.655 45.1853 106.626 45.552H104.382C104.396 45.0387 104.484 44.5767 104.646 44.166C104.822 43.7407 105.078 43.3813 105.416 43.088C105.753 42.7947 106.186 42.5673 106.714 42.406C107.242 42.2447 107.865 42.164 108.584 42.164C110.094 42.164 111.187 42.494 111.862 43.154C112.551 43.814 112.896 44.8553 112.896 46.278V54H110.718V52.108C110.586 52.372 110.424 52.6287 110.234 52.878C110.043 53.1127 109.808 53.3253 109.53 53.516C109.266 53.7067 108.943 53.8607 108.562 53.978C108.18 54.0807 107.733 54.132 107.22 54.132ZM107.968 52.086C108.76 52.086 109.376 51.866 109.816 51.426C110.27 50.9713 110.498 50.326 110.498 49.49V48.962H108.122C107.403 48.962 106.897 49.1013 106.604 49.38C106.325 49.644 106.186 50.04 106.186 50.568C106.186 51.0373 106.325 51.4113 106.604 51.69C106.897 51.954 107.352 52.086 107.968 52.086Z" fill="white"/>
</svg>
